<?xml version="1.0" encoding="UTF-8"?>
<!DOCTYPE svg PUBLIC "-//W3C//DTD SVG 1.1//EN" "http://www.w3.org/Graphics/SVG/1.1/DTD/svg11.dtd">
<svg xmlns="http://www.w3.org/2000/svg" version="1.1" width="1518px" height="310px" style="shape-rendering:geometricPrecision; text-rendering:geometricPrecision; image-rendering:optimizeQuality; fill-rule:evenodd; clip-rule:evenodd" xmlns:xlink="http://www.w3.org/1999/xlink">
<g><path style="opacity:0.989" fill="#000000" d="M 610.5,-0.5 C 637.167,-0.5 663.833,-0.5 690.5,-0.5C 725.49,1.05966 760.49,4.22633 795.5,9C 820.721,15.2211 837.221,30.7211 845,55.5C 860.333,121.5 860.333,187.5 845,253.5C 837.833,276.667 822.667,291.833 799.5,299C 791.89,300.576 784.224,301.743 776.5,302.5C 784.153,287.193 791.82,271.86 799.5,256.5C 790.525,255.502 781.525,255.168 772.5,255.5C 783.381,234.405 793.715,213.071 803.5,191.5C 792.5,191.5 781.5,191.5 770.5,191.5C 772.224,163.788 771.724,136.121 769,108.5C 765.155,91.6555 754.655,82.1555 737.5,80C 676.588,73.6152 615.755,74.1152 555,81.5C 542.275,86.2225 534.608,95.2225 532,108.5C 528.667,139.167 528.667,169.833 532,200.5C 532.932,206.162 535.099,211.162 538.5,215.5C 535.563,221.041 532.896,226.708 530.5,232.5C 529.833,232.5 529.5,232.833 529.5,233.5C 520.915,233.183 512.415,233.517 504,234.5C 495.217,251.732 486.717,269.066 478.5,286.5C 470.055,280.208 463.555,272.208 459,262.5C 448.951,227.23 444.117,191.23 444.5,154.5C 444.117,117.77 448.951,81.7704 459,46.5C 467.63,27.8684 481.797,15.7017 501.5,10C 537.783,4.47507 574.116,0.975066 610.5,-0.5 Z M 770.5,191.5 C 744.5,191.5 718.5,191.5 692.5,191.5C 703.217,169.066 714.217,146.732 725.5,124.5C 678.167,123.167 630.833,123.167 583.5,124.5C 568.217,154.732 553.217,185.065 538.5,215.5C 535.099,211.162 532.932,206.162 532,200.5C 528.667,169.833 528.667,139.167 532,108.5C 534.608,95.2225 542.275,86.2225 555,81.5C 615.755,74.1152 676.588,73.6152 737.5,80C 754.655,82.1555 765.155,91.6555 769,108.5C 771.724,136.121 772.224,163.788 770.5,191.5 Z"/></g>
<g><path style="opacity:0.988" fill="#000000" d="M -0.5,4.5 C 32.5,4.5 65.5,4.5 98.5,4.5C 134.105,79.7112 170.271,154.711 207,229.5C 210.385,231.933 214.218,232.933 218.5,232.5C 223.393,233.201 227.56,231.868 231,228.5C 266.728,154.044 302.728,79.7111 339,5.5C 371.767,4.17142 404.6,4.17142 437.5,5.5C 386.294,105.412 334.961,205.245 283.5,305C 239.929,305.83 196.429,305.663 153,304.5C 102.059,204.949 50.8923,105.615 -0.5,6.5C -0.5,5.83333 -0.5,5.16667 -0.5,4.5 Z"/></g>
<g><path style="opacity:0.99" fill="#000000" d="M 903.5,4.5 C 934.167,4.5 964.833,4.5 995.5,4.5C 995.5,80.5 995.5,156.5 995.5,232.5C 1069.5,232.5 1143.5,232.5 1217.5,232.5C 1217.5,256.833 1217.5,281.167 1217.5,305.5C 1112.83,305.5 1008.17,305.5 903.5,305.5C 903.5,205.167 903.5,104.833 903.5,4.5 Z"/></g>
<g><path style="opacity:0.994" fill="#000000" d="M 1517.5,4.5 C 1517.5,28.5 1517.5,52.5 1517.5,76.5C 1471.5,76.5 1425.5,76.5 1379.5,76.5C 1379.5,152.833 1379.5,229.167 1379.5,305.5C 1348.83,305.5 1318.17,305.5 1287.5,305.5C 1287.5,229.167 1287.5,152.833 1287.5,76.5C 1241.5,76.5 1195.5,76.5 1149.5,76.5C 1149.5,52.5 1149.5,28.5 1149.5,4.5C 1272.17,4.5 1394.83,4.5 1517.5,4.5 Z"/></g>
<g><path style="opacity:0.989" fill="#fee500" d="M 692.5,191.5 C 692.167,191.5 691.833,191.5 691.5,191.5C 681.917,191.182 672.417,191.515 663,192.5C 643.551,231.065 624.384,269.732 605.5,308.5C 593.128,308.373 580.795,307.706 568.5,306.5C 580.487,282.527 592.487,258.527 604.5,234.5C 579.67,233.833 555.003,233.167 530.5,232.5C 532.896,226.708 535.563,221.041 538.5,215.5C 553.217,185.065 568.217,154.732 583.5,124.5C 630.833,123.167 678.167,123.167 725.5,124.5C 714.217,146.732 703.217,169.066 692.5,191.5 Z"/></g>
<g><path style="opacity:0.997" fill="#d71589" d="M 691.5,191.5 C 691.833,191.5 692.167,191.5 692.5,191.5C 718.5,191.5 744.5,191.5 770.5,191.5C 781.5,191.5 792.5,191.5 803.5,191.5C 793.715,213.071 783.381,234.405 772.5,255.5C 772.167,255.5 771.833,255.5 771.5,255.5C 747.498,255.333 723.498,255.5 699.5,256C 690.144,273.545 681.477,291.378 673.5,309.5C 659.833,309.5 646.167,309.5 632.5,309.5C 652.167,270.167 671.833,230.833 691.5,191.5 Z"/></g>
<g><path style="opacity:0.996" fill="#d81500" d="M 691.5,191.5 C 671.833,230.833 652.167,270.167 632.5,309.5C 625.5,309.5 618.5,309.5 611.5,309.5C 609.735,308.539 607.735,308.205 605.5,308.5C 624.384,269.732 643.551,231.065 663,192.5C 672.417,191.515 681.917,191.182 691.5,191.5 Z"/></g>
<g><path style="opacity:0.992" fill="#1cb0bf" d="M 529.5,233.5 C 518.833,254.833 508.167,276.167 497.5,297.5C 490.044,295.611 483.711,291.944 478.5,286.5C 486.717,269.066 495.217,251.732 504,234.5C 512.415,233.517 520.915,233.183 529.5,233.5 Z"/></g>
<g><path style="opacity:0.994" fill="#1ea003" d="M 530.5,232.5 C 555.003,233.167 579.67,233.833 604.5,234.5C 592.487,258.527 580.487,282.527 568.5,306.5C 552.124,305.529 535.79,304.029 519.5,302C 511.94,301.375 504.607,299.875 497.5,297.5C 508.167,276.167 518.833,254.833 529.5,233.5C 529.5,232.833 529.833,232.5 530.5,232.5 Z"/></g>
<g><path style="opacity:0.992" fill="#4a2568" d="M 771.5,255.5 C 763.5,272.167 755.5,288.833 747.5,305.5C 728.028,307.008 708.695,308.341 689.5,309.5C 684.167,309.5 678.833,309.5 673.5,309.5C 681.477,291.378 690.144,273.545 699.5,256C 723.498,255.5 747.498,255.333 771.5,255.5 Z"/></g>
<g><path style="opacity:0.99" fill="#015194" d="M 771.5,255.5 C 771.833,255.5 772.167,255.5 772.5,255.5C 781.525,255.168 790.525,255.502 799.5,256.5C 791.82,271.86 784.153,287.193 776.5,302.5C 766.857,303.698 757.19,304.698 747.5,305.5C 755.5,288.833 763.5,272.167 771.5,255.5 Z"/></g>
<g><path style="opacity:0.773" fill="#000000" d="M 1454.5,261.5 C 1474.1,262.383 1481.93,272.383 1478,291.5C 1472.2,303.152 1463.03,307.318 1450.5,304C 1435.63,295.841 1432.46,284.341 1441,269.5C 1444.9,265.641 1449.4,262.975 1454.5,261.5 Z M 1455.5,265.5 C 1467.55,265.554 1474.22,271.554 1475.5,283.5C 1473.03,297.143 1465.03,302.643 1451.5,300C 1439.95,293.373 1437.45,284.206 1444,272.5C 1447.26,269.037 1451.1,266.704 1455.5,265.5 Z M 1453.5,275.5 C 1456.19,275.336 1458.85,275.503 1461.5,276C 1462.93,278.267 1462.6,280.267 1460.5,282C 1458.19,282.497 1455.86,282.663 1453.5,282.5C 1453.5,280.167 1453.5,277.833 1453.5,275.5 Z"/></g>
<g><path style="opacity:0.815" fill="#000000" d="M 1448.5,271.5 C 1453.84,271.334 1459.18,271.501 1464.5,272C 1467.39,274.909 1468.23,278.409 1467,282.5C 1466.25,283.126 1465.42,283.626 1464.5,284C 1467.15,287.327 1468.15,291.161 1467.5,295.5C 1465.86,295.714 1464.36,295.38 1463,294.5C 1463.37,287.703 1460.2,285.036 1453.5,286.5C 1453.5,289.5 1453.5,292.5 1453.5,295.5C 1451.83,295.5 1450.17,295.5 1448.5,295.5C 1448.5,287.5 1448.5,279.5 1448.5,271.5 Z M 1453.5,275.5 C 1453.5,277.833 1453.5,280.167 1453.5,282.5C 1455.86,282.663 1458.19,282.497 1460.5,282C 1462.6,280.267 1462.93,278.267 1461.5,276C 1458.85,275.503 1456.19,275.336 1453.5,275.5 Z"/></g>
</svg>
