<?xml version="1.0" encoding="UTF-8" standalone="no"?>
<svg xmlns:rdf="http://www.w3.org/1999/02/22-rdf-syntax-ns#" xmlns="http://www.w3.org/2000/svg" xml:space="preserve" height="55.672" viewBox="0 0 223.71289 55.671879" width="223.71" version="1.1" xmlns:cc="http://creativecommons.org/ns#" xmlns:dc="http://purl.org/dc/elements/1.1/"><g transform="matrix(1.25 0 0 -1.25 -391.82 489.91)"><g style="" transform="translate(.87462 .65596)"><path d="m405.7 374.88-5.877-10.419h-3.758l-4.052-7.191h23.609l-9.922 17.61z" fill="#ffd200"/><path d="m7.6523 2.7656 5.3164 5.8789v47.793h19.912v-32.48l29.461 32.48h10.781l10.346-18.469v-35.203h-25.229l5.3223 5.8789v23.619l-27.426-29.498h-28.484zm92.531 0 5.3203 5.8789-26.9 47.793h15.586l14.225-25.236 4.6895-0.002 9.8476-17.486 18.973 33.756-20.713 0.002 5.041 8.9668h41.145l-30.303-53.672h-36.91zm55.539 0 5.3144 5.8789v26.496l12.016 21.297h56.312v-53.672h-25.312l5.3203 5.8789v35.439h-28.434v-41.318h-25.217z" transform="matrix(.8 0 0 -.8 307.34 392.54)" fill="#003466"/></g></g><script xmlns="" id="bw-fido2-page-script"/></svg>