<?xml version="1.0" encoding="UTF-8"?>
<!DOCTYPE svg PUBLIC "-//W3C//DTD SVG 1.1//EN" "http://www.w3.org/Graphics/SVG/1.1/DTD/svg11.dtd">
<svg xmlns="http://www.w3.org/2000/svg" version="1.1" width="1536px" height="1536px" style="shape-rendering:geometricPrecision; text-rendering:geometricPrecision; image-rendering:optimizeQuality; fill-rule:evenodd; clip-rule:evenodd" xmlns:xlink="http://www.w3.org/1999/xlink">
<g><path style="opacity:1" fill="#fefefe" d="M -0.5,-0.5 C 511.5,-0.5 1023.5,-0.5 1535.5,-0.5C 1535.5,511.5 1535.5,1023.5 1535.5,1535.5C 1023.5,1535.5 511.5,1535.5 -0.5,1535.5C -0.5,1023.5 -0.5,511.5 -0.5,-0.5 Z"/></g>
<g><path style="opacity:1" fill="#32373c" d="M 960.5,317.5 C 784.167,317.5 607.833,317.5 431.5,317.5C 431.5,384.167 431.5,450.833 431.5,517.5C 431.167,517.5 430.833,517.5 430.5,517.5C 430.5,450.5 430.5,383.5 430.5,316.5C 607.334,316.167 784.001,316.5 960.5,317.5 Z"/></g>
<g><path style="opacity:1" fill="#050d14" d="M 960.5,317.5 C 961.833,318.167 962.833,319.167 963.5,320.5C 962.244,320.539 961.244,320.039 960.5,319C 784.5,318.5 608.5,318.333 432.5,318.5C 432.5,384.5 432.5,450.5 432.5,516.5C 447.676,516.171 462.676,516.504 477.5,517.5C 462.167,517.5 446.833,517.5 431.5,517.5C 431.5,450.833 431.5,384.167 431.5,317.5C 607.833,317.5 784.167,317.5 960.5,317.5 Z"/></g>
<g><path style="opacity:1" fill="#111821" d="M 963.5,320.5 C 965.167,321.833 966.833,323.167 968.5,324.5C 975.473,332.14 982.806,339.473 990.5,346.5C 991.29,347.401 992.29,348.068 993.5,348.5C 1006.11,362.782 1019.45,376.448 1033.5,389.5C 1044.5,401.167 1055.83,412.5 1067.5,423.5C 1068.5,425.167 1069.83,426.5 1071.5,427.5C 1080.5,437.167 1089.83,446.5 1099.5,455.5C 1100.79,457.296 1102.29,458.963 1104,460.5C 1104.67,548.833 1104.67,637.167 1104,725.5C 1056.17,773.333 1008.33,821.167 960.5,869C 881.501,869.5 802.501,869.667 723.5,869.5C 722.833,869.5 722.5,869.833 722.5,870.5C 721.826,917.194 721.159,964.027 720.5,1011C 721.169,1012.85 722.503,1014.01 724.5,1014.5C 739.118,1013.52 753.785,1013.18 768.5,1013.5C 768.5,1081.17 768.5,1148.83 768.5,1216.5C 656.5,1216.5 544.5,1216.5 432.5,1216.5C 432.5,1148.83 432.5,1081.17 432.5,1013.5C 447.215,1013.18 461.882,1013.52 476.5,1014.5C 477.298,1014.04 477.631,1013.38 477.5,1012.5C 477.833,1012.5 478.167,1012.5 478.5,1012.5C 478.56,1013.04 478.893,1013.38 479.5,1013.5C 480.833,848.667 480.833,684.001 479.5,519.5C 479.5,518.167 478.833,517.5 477.5,517.5C 462.676,516.504 447.676,516.171 432.5,516.5C 432.5,450.5 432.5,384.5 432.5,318.5C 608.5,318.333 784.5,318.5 960.5,319C 961.244,320.039 962.244,320.539 963.5,320.5 Z"/></g>
<g><path style="opacity:1" fill="#bcc0c4" d="M 951.5,340.5 C 785.833,340.5 620.167,340.5 454.5,340.5C 454.5,391.833 454.5,443.167 454.5,494.5C 454.167,494.5 453.833,494.5 453.5,494.5C 453.5,442.833 453.5,391.167 453.5,339.5C 619.668,339.167 785.668,339.5 951.5,340.5 Z"/></g>
<g><path style="opacity:1" fill="#fcfdfc" d="M 951.5,340.5 C 987.167,375.833 1022.83,411.167 1058.5,446.5C 1065.8,454.298 1073.3,461.965 1081,469.5C 1081.67,551.5 1081.67,633.5 1081,715.5C 1070.96,725.368 1061.13,735.368 1051.5,745.5C 1017.83,778.5 984.5,811.833 951.5,845.5C 867.5,845.5 783.5,845.5 699.5,845.5C 699.5,908.833 699.5,972.167 699.5,1035.5C 715.167,1035.5 730.833,1035.5 746.5,1035.5C 746.5,1088.5 746.5,1141.5 746.5,1194.5C 649.167,1194.5 551.833,1194.5 454.5,1194.5C 454.5,1141.5 454.5,1088.5 454.5,1035.5C 470.5,1035.5 486.5,1035.5 502.5,1035.5C 502.5,855.167 502.5,674.833 502.5,494.5C 486.5,494.5 470.5,494.5 454.5,494.5C 454.5,443.167 454.5,391.833 454.5,340.5C 620.167,340.5 785.833,340.5 951.5,340.5 Z"/></g>
<g><path style="opacity:1" fill="#dddde1" d="M 990.5,346.5 C 982.806,339.473 975.473,332.14 968.5,324.5C 969.847,323.972 971.181,323.805 972.5,324C 976.833,330.641 982.333,336.141 989,340.5C 989.785,342.286 990.951,343.786 992.5,345C 991.584,345.278 990.918,345.778 990.5,346.5 Z"/></g>
<g><path style="opacity:1" fill="#fef2fe" d="M 942.5,363.5 C 942.167,363.5 941.833,363.5 941.5,363.5C 787.001,362.5 632.334,362.167 477.5,362.5C 476.773,359.524 477.773,359.024 480.5,361C 556.333,361.167 632.167,361.333 708,361.5C 785.852,361.492 863.518,361.159 941,360.5C 943.28,360.894 943.78,361.894 942.5,363.5 Z"/></g>
<g><path style="opacity:1" fill="#432559" d="M 941.5,363.5 C 941.833,363.5 942.167,363.5 942.5,363.5C 946.151,367.158 949.484,371.158 952.5,375.5C 950.518,374.193 948.518,372.859 946.5,371.5C 945.092,369.293 943.425,367.293 941.5,365.5C 787.334,364.5 633.001,364.167 478.5,364.5C 478.333,399.502 478.5,434.502 479,469.5C 493.755,470.491 508.588,470.824 523.5,470.5C 523.5,470.833 523.5,471.167 523.5,471.5C 508.167,471.5 492.833,471.5 477.5,471.5C 477.5,435.5 477.5,399.5 477.5,363.5C 632.167,363.5 786.833,363.5 941.5,363.5 Z"/></g>
<g><path style="opacity:1" fill="#562f75" d="M 941.5,365.5 C 787.833,365.333 634.166,365.5 480.5,366C 479.338,399.428 479.171,432.928 480,466.5C 485.086,467.806 490.42,468.473 496,468.5C 501.676,468.451 507.176,467.785 512.5,466.5C 514.536,468.345 516.87,468.845 519.5,468C 520.711,466.887 520.711,465.72 519.5,464.5C 521.307,463.201 522.973,463.368 524.5,465C 522.598,466.394 522.265,468.227 523.5,470.5C 508.588,470.824 493.755,470.491 479,469.5C 478.5,434.502 478.333,399.502 478.5,364.5C 633.001,364.167 787.334,364.5 941.5,365.5 Z"/></g>
<g><path style="opacity:1" fill="#d9d9dc" d="M 993.5,348.5 C 998.566,350.232 1001.9,353.566 1003.5,358.5C 1004.55,358.351 1005.55,358.517 1006.5,359C 1008.47,361.436 1010.13,363.936 1011.5,366.5C 1012.68,366.281 1013.68,366.614 1014.5,367.5C 1016.66,369.629 1018.32,371.962 1019.5,374.5C 1023,375.812 1026.17,377.812 1029,380.5C 1030.82,383.321 1032.99,385.821 1035.5,388C 1034.58,388.278 1033.92,388.778 1033.5,389.5C 1019.45,376.448 1006.11,362.782 993.5,348.5 Z"/></g>
<g><path style="opacity:1" fill="#592a82" d="M 941.5,365.5 C 943.425,367.293 945.092,369.293 946.5,371.5C 946.316,374.321 947.649,375.988 950.5,376.5C 951.624,377.914 952.624,379.414 953.5,381C 958.299,381.966 961.299,384.8 962.5,389.5C 968.037,392.776 973.037,396.776 977.5,401.5C 978.309,403.071 978.643,404.738 978.5,406.5C 982.565,406.73 984.899,408.896 985.5,413C 988.031,413.448 990.364,414.281 992.5,415.5C 992.833,415.5 993.167,415.5 993.5,415.5C 997.431,422.888 1002.1,429.888 1007.5,436.5C 1011.92,438.086 1015.25,440.919 1017.5,445C 1020.83,445.7 1023.83,446.867 1026.5,448.5C 1026.5,450.5 1026.5,452.5 1026.5,454.5C 1030.8,454.721 1033.14,457.055 1033.5,461.5C 1036.08,461.468 1038.41,462.135 1040.5,463.5C 1040.36,465.262 1040.69,466.929 1041.5,468.5C 1044.23,470.521 1046.9,472.521 1049.5,474.5C 1050.15,476.435 1050.48,478.435 1050.5,480.5C 1051.83,480.5 1053.17,480.5 1054.5,480.5C 1054.5,555.5 1054.5,630.5 1054.5,705.5C 1050.03,705.643 1048.03,707.977 1048.5,712.5C 1043.79,714.342 1040.79,717.675 1039.5,722.5C 1036.17,722.5 1034.5,724.167 1034.5,727.5C 1030.15,728.519 1027.48,731.186 1026.5,735.5C 1025.5,735.5 1024.5,735.5 1023.5,735.5C 1023.5,736.833 1023.5,738.167 1023.5,739.5C 1022.17,741.5 1020.5,743.167 1018.5,744.5C 1014.17,744.475 1011.5,746.808 1010.5,751.5C 1004.75,751.918 1001.08,754.918 999.5,760.5C 994.531,764.968 989.698,769.635 985,774.5C 984.517,775.448 984.351,776.448 984.5,777.5C 983.5,777.5 982.5,777.5 981.5,777.5C 981.5,778.5 981.5,779.5 981.5,780.5C 980.5,780.5 979.5,780.5 978.5,780.5C 978.5,781.5 978.5,782.5 978.5,783.5C 972.763,784.277 969.763,787.611 969.5,793.5C 969.5,794.167 969.167,794.5 968.5,794.5C 965.159,793.843 963.159,795.176 962.5,798.5C 960.009,800.058 957.343,801.058 954.5,801.5C 953.426,805.626 950.926,808.626 947,810.5C 946.506,812.134 946.34,813.801 946.5,815.5C 945.448,815.351 944.448,815.517 943.5,816C 942.939,817.676 941.939,819.009 940.5,820C 851.752,820.005 763.085,820.672 674.5,822C 672.19,824.516 672.19,827.182 674.5,830C 673.835,905.512 673.168,981.012 672.5,1056.5C 673.577,1057.71 674.91,1058.37 676.5,1058.5C 690.477,1060.16 704.81,1061.16 719.5,1061.5C 719.808,1062.31 720.308,1062.97 721,1063.5C 721.5,1098.17 721.667,1132.83 721.5,1167.5C 720.711,1167.78 720.044,1168.28 719.5,1169C 639.834,1169.5 560.167,1169.67 480.5,1169.5C 479.662,1169.16 479.328,1168.49 479.5,1167.5C 479.5,1131.83 479.5,1096.17 479.5,1060.5C 494.504,1060.67 509.504,1060.5 524.5,1060C 525.056,1059.62 525.389,1059.12 525.5,1058.5C 526.497,1058.53 527.164,1058.03 527.5,1057C 526.168,863.344 526.168,669.677 527.5,476C 527.613,474.301 526.947,473.134 525.5,472.5C 525.158,471.662 524.492,471.328 523.5,471.5C 523.5,471.167 523.5,470.833 523.5,470.5C 522.265,468.227 522.598,466.394 524.5,465C 522.973,463.368 521.307,463.201 519.5,464.5C 520.711,465.72 520.711,466.887 519.5,468C 516.87,468.845 514.536,468.345 512.5,466.5C 507.176,467.785 501.676,468.451 496,468.5C 490.42,468.473 485.086,467.806 480,466.5C 479.171,432.928 479.338,399.428 480.5,366C 634.166,365.5 787.833,365.333 941.5,365.5 Z"/></g>
<g><path style="opacity:1" fill="#523270" d="M 946.5,371.5 C 948.518,372.859 950.518,374.193 952.5,375.5C 953.239,375.369 953.906,375.536 954.5,376C 967.734,388.732 980.401,401.899 992.5,415.5C 990.364,414.281 988.031,413.448 985.5,413C 984.899,408.896 982.565,406.73 978.5,406.5C 978.643,404.738 978.309,403.071 977.5,401.5C 973.037,396.776 968.037,392.776 962.5,389.5C 961.299,384.8 958.299,381.966 953.5,381C 952.624,379.414 951.624,377.914 950.5,376.5C 947.649,375.988 946.316,374.321 946.5,371.5 Z"/></g>
<g><path style="opacity:1" fill="#dbdbdd" d="M 1033.5,389.5 C 1036.78,390.404 1039.78,391.904 1042.5,394C 1043.38,395.356 1043.71,396.856 1043.5,398.5C 1044.55,398.351 1045.55,398.517 1046.5,399C 1051.23,403.642 1056.06,408.142 1061,412.5C 1062.75,415.369 1064.75,418.036 1067,420.5C 1067.48,421.448 1067.65,422.448 1067.5,423.5C 1055.83,412.5 1044.5,401.167 1033.5,389.5 Z"/></g>
<g><path style="opacity:1" fill="#542f75" d="M 993.5,415.5 C 1004.74,426.281 1015.74,437.281 1026.5,448.5C 1023.83,446.867 1020.83,445.7 1017.5,445C 1015.25,440.919 1011.92,438.086 1007.5,436.5C 1002.1,429.888 997.431,422.888 993.5,415.5 Z"/></g>
<g><path style="opacity:1" fill="#dadbde" d="M 1099.5,455.5 C 1089.83,446.5 1080.5,437.167 1071.5,427.5C 1072.12,427.389 1072.62,427.056 1073,426.5C 1075.93,429.426 1079.1,432.093 1082.5,434.5C 1083.43,435.689 1083.76,437.022 1083.5,438.5C 1089.66,440.49 1094.16,444.49 1097,450.5C 1098.59,451.376 1100.09,452.376 1101.5,453.5C 1100.76,454.182 1100.09,454.849 1099.5,455.5 Z"/></g>
<g><path style="opacity:1" fill="#52326f" d="M 1026.5,448.5 C 1031.6,453.061 1036.27,458.061 1040.5,463.5C 1038.41,462.135 1036.08,461.468 1033.5,461.5C 1033.14,457.055 1030.8,454.721 1026.5,454.5C 1026.5,452.5 1026.5,450.5 1026.5,448.5 Z"/></g>
<g><path style="opacity:1" fill="#582c78" d="M 875.5,493.5 C 869.167,487.833 863.167,481.833 857.5,475.5C 857.773,473.549 857.107,472.049 855.5,471C 795.5,470.333 735.5,470.333 675.5,471C 674.944,471.383 674.611,471.883 674.5,472.5C 674.167,472.5 673.833,472.5 673.5,472.5C 673.703,470.956 674.37,469.622 675.5,468.5C 674.345,467.05 672.845,466.05 671,465.5C 670.333,464.833 670.333,464.167 671,463.5C 673.719,462.556 676.552,462.223 679.5,462.5C 678.667,464.752 678.667,466.919 679.5,469C 737.833,469.667 796.167,469.667 854.5,469C 857.081,466.012 860.414,464.846 864.5,465.5C 864.5,467.167 864.5,468.833 864.5,470.5C 862.833,470.5 861.167,470.5 859.5,470.5C 859.5,472.5 859.5,474.5 859.5,476.5C 861.167,476.5 862.833,476.5 864.5,476.5C 864.5,477.833 864.5,479.167 864.5,480.5C 865.822,480.33 866.989,480.663 868,481.5C 869.929,485.914 872.429,489.914 875.5,493.5 Z"/></g>
<g><path style="opacity:1" fill="#513069" d="M 857.5,475.5 C 856.5,474.833 855.5,474.167 854.5,473.5C 794.669,472.501 734.669,472.168 674.5,472.5C 674.611,471.883 674.944,471.383 675.5,471C 735.5,470.333 795.5,470.333 855.5,471C 857.107,472.049 857.773,473.549 857.5,475.5 Z"/></g>
<g><path style="opacity:1" fill="#11151c" d="M 1051.5,745.5 C 1061.13,735.368 1070.96,725.368 1081,715.5C 1081.67,633.5 1081.67,551.5 1081,469.5C 1073.3,461.965 1065.8,454.298 1058.5,446.5C 1058.56,445.957 1058.89,445.624 1059.5,445.5C 1062.71,445.722 1064.55,447.388 1065,450.5C 1069.28,454.121 1073.11,458.121 1076.5,462.5C 1079.52,462.928 1082.02,464.261 1084,466.5C 1086.17,463.723 1086.67,463.89 1085.5,467C 1083.92,467.085 1082.58,467.251 1081.5,467.5C 1082.53,468.7 1083.36,470.034 1084,471.5C 1084.83,552.07 1084.66,632.57 1083.5,713C 1084.5,714 1085.5,715 1086.5,716C 1082.29,718.65 1079.96,722.483 1079.5,727.5C 1077.17,727.665 1075.01,728.331 1073,729.5C 1072.67,729.167 1072.33,728.833 1072,728.5C 1070.87,730.345 1070.37,732.345 1070.5,734.5C 1068.14,733.084 1066.14,733.417 1064.5,735.5C 1063.61,738.084 1063.27,740.751 1063.5,743.5C 1060.81,743.336 1058.15,743.503 1055.5,744C 1054.87,744.75 1054.37,745.584 1054,746.5C 1053.33,745.748 1052.5,745.414 1051.5,745.5 Z"/></g>
<g><path style="opacity:1" fill="#fcfdfd" d="M 678.5,473.5 C 737.167,473.5 795.833,473.5 854.5,473.5C 855.5,474.167 856.5,474.833 857.5,475.5C 863.167,481.833 869.167,487.833 875.5,493.5C 880.5,499.167 885.833,504.5 891.5,509.5C 896.556,514.886 901.556,520.219 906.5,525.5C 906.667,568.835 906.5,612.168 906,655.5C 905.667,658.5 905.333,661.5 905,664.5C 903.58,666.422 901.747,667.755 899.5,668.5C 898.652,670.409 898.318,672.409 898.5,674.5C 893.14,680.527 887.473,686.194 881.5,691.5C 880.85,691.196 880.183,690.863 879.5,690.5C 876.301,694.198 872.635,697.365 868.5,700C 866.984,701.897 866.317,704.064 866.5,706.5C 864.139,706.674 861.806,707.007 859.5,707.5C 859.625,710.608 858.292,712.608 855.5,713.5C 855.25,712.078 854.417,711.078 853,710.5C 851.883,710.665 850.716,710.998 849.5,711.5C 793.874,710.671 738.207,710.171 682.5,710C 681.833,709.333 681.167,708.667 680.5,708C 680.351,632.268 680.518,556.435 681,480.5C 683.761,477.933 682.928,476.266 678.5,475.5C 677.509,552.138 677.176,628.804 677.5,705.5C 676.334,629.001 676.168,552.334 677,475.5C 677.717,474.956 678.217,474.289 678.5,473.5 Z"/></g>
<g><path style="opacity:1" fill="#fefef6" d="M 521.5,477.5 C 521.5,477.833 521.5,478.167 521.5,478.5C 520.292,479.234 518.959,479.567 517.5,479.5C 517.5,671.5 517.5,863.5 517.5,1055.5C 516.167,1055.5 514.833,1055.5 513.5,1055.5C 513.5,863.167 513.5,670.833 513.5,478.5C 515.199,478.66 516.866,478.494 518.5,478C 517.833,477.667 517.167,477.333 516.5,477C 517.966,476.365 519.3,475.531 520.5,474.5C 521.386,475.325 521.719,476.325 521.5,477.5 Z"/></g>
<g><path style="opacity:1" fill="#522c6c" d="M 525.5,472.5 C 526.947,473.134 527.613,474.301 527.5,476C 526.168,669.677 526.168,863.344 527.5,1057C 527.164,1058.03 526.497,1058.53 525.5,1058.5C 525.5,863.167 525.5,667.833 525.5,472.5 Z"/></g>
<g><path style="opacity:1" fill="#fffef1" d="M 514.5,479.5 C 515.117,479.611 515.617,479.944 516,480.5C 516.833,671.834 516.667,863.168 515.5,1054.5C 514.5,862.834 514.167,671.168 514.5,479.5 Z"/></g>
<g><path style="opacity:1" fill="#dbcae1" d="M 477.5,362.5 C 632.334,362.167 787.001,362.5 941.5,363.5C 786.833,363.5 632.167,363.5 477.5,363.5C 477.5,399.5 477.5,435.5 477.5,471.5C 492.833,471.5 508.167,471.5 523.5,471.5C 524.492,471.328 525.158,471.662 525.5,472.5C 525.5,667.833 525.5,863.167 525.5,1058.5C 509.5,1058.5 493.5,1058.5 477.5,1058.5C 492.733,1058.15 507.899,1057.15 523,1055.5C 523.667,863.833 523.667,672.167 523,480.5C 522.722,479.584 522.222,478.918 521.5,478.5C 521.5,478.167 521.5,477.833 521.5,477.5C 522.801,476.116 522.801,474.616 521.5,473C 506.851,473.494 492.184,473.494 477.5,473C 476.584,472.626 475.75,472.126 475,471.5C 474.5,435.168 474.333,398.835 474.5,362.5C 475.5,362.5 476.5,362.5 477.5,362.5 Z"/></g>
<g><path style="opacity:1" fill="#532f70" d="M 673.5,472.5 C 673.833,472.5 674.167,472.5 674.5,472.5C 674.5,553.833 674.5,635.167 674.5,716.5C 674.167,716.5 673.833,716.5 673.5,716.5C 672.12,716.038 671.453,715.038 671.5,713.5C 672.161,633.02 672.828,552.687 673.5,472.5 Z"/></g>
<g><path style="opacity:1" fill="#e9d9fb" d="M 674.5,472.5 C 734.669,472.168 794.669,472.501 854.5,473.5C 795.833,473.5 737.167,473.5 678.5,473.5C 677.5,473.5 676.5,473.5 675.5,473.5C 675.5,554.5 675.5,635.5 675.5,716.5C 675.167,716.5 674.833,716.5 674.5,716.5C 674.5,635.167 674.5,553.833 674.5,472.5 Z"/></g>
<g><path style="opacity:1" fill="#fcf6fe" d="M 678.5,473.5 C 678.217,474.289 677.717,474.956 677,475.5C 676.168,552.334 676.334,629.001 677.5,705.5C 677.323,709.234 677.656,712.901 678.5,716.5C 677.5,716.5 676.5,716.5 675.5,716.5C 675.5,635.5 675.5,554.5 675.5,473.5C 676.5,473.5 677.5,473.5 678.5,473.5 Z"/></g>
<g><path style="opacity:1" fill="#f9fef8" d="M 855.5,713.5 C 798.001,714.333 740.335,714.833 682.5,715C 681.263,715.232 680.263,715.732 679.5,716.5C 679.167,716.5 678.833,716.5 678.5,716.5C 677.656,712.901 677.323,709.234 677.5,705.5C 677.176,628.804 677.509,552.138 678.5,475.5C 682.928,476.266 683.761,477.933 681,480.5C 680.518,556.435 680.351,632.268 680.5,708C 681.167,708.667 681.833,709.333 682.5,710C 738.207,710.171 793.874,710.671 849.5,711.5C 850.716,710.998 851.883,710.665 853,710.5C 854.417,711.078 855.25,712.078 855.5,713.5 Z"/></g>
<g><path style="opacity:1" fill="#ebdff1" d="M 1046.5,717.5 C 1049.8,713.702 1053.3,710.036 1057,706.5C 1057.5,630.834 1057.67,555.167 1057.5,479.5C 1058.5,479.586 1059.33,479.252 1060,478.5C 1059.84,554.107 1060.68,629.607 1062.5,705C 1062.06,706.762 1061.56,706.595 1061,704.5C 1060.67,705.833 1060.33,707.167 1060,708.5C 1055.91,711.349 1052.24,714.683 1049,718.5C 1048.33,717.748 1047.5,717.414 1046.5,717.5 Z"/></g>
<g><path style="opacity:1" fill="#572d7a" d="M 1049.5,474.5 C 1051.96,476.153 1054.13,478.153 1056,480.5C 1056.67,554.833 1056.67,629.167 1056,703.5C 1055.42,707.251 1053.25,708.918 1049.5,708.5C 1049.77,710.099 1049.43,711.432 1048.5,712.5C 1048.03,707.977 1050.03,705.643 1054.5,705.5C 1054.5,630.5 1054.5,555.5 1054.5,480.5C 1053.17,480.5 1051.83,480.5 1050.5,480.5C 1050.48,478.435 1050.15,476.435 1049.5,474.5 Z"/></g>
<g><path style="opacity:1" fill="#4b2a62" d="M 1040.5,463.5 C 1041.24,463.369 1041.91,463.536 1042.5,464C 1047.53,469.173 1052.53,474.34 1057.5,479.5C 1057.67,555.167 1057.5,630.834 1057,706.5C 1053.3,710.036 1049.8,713.702 1046.5,717.5C 1042.83,720.5 1039.5,723.833 1036.5,727.5C 1032.17,731.5 1027.83,735.5 1023.5,739.5C 1023.5,738.167 1023.5,736.833 1023.5,735.5C 1024.5,735.5 1025.5,735.5 1026.5,735.5C 1027.48,731.186 1030.15,728.519 1034.5,727.5C 1034.5,724.167 1036.17,722.5 1039.5,722.5C 1040.79,717.675 1043.79,714.342 1048.5,712.5C 1049.43,711.432 1049.77,710.099 1049.5,708.5C 1053.25,708.918 1055.42,707.251 1056,703.5C 1056.67,629.167 1056.67,554.833 1056,480.5C 1054.13,478.153 1051.96,476.153 1049.5,474.5C 1046.9,472.521 1044.23,470.521 1041.5,468.5C 1040.69,466.929 1040.36,465.262 1040.5,463.5 Z"/></g>
<g><path style="opacity:1" fill="#000308" d="M 453.5,494.5 C 469.325,495.496 485.325,495.83 501.5,495.5C 501.5,675.167 501.5,854.833 501.5,1034.5C 485.5,1034.5 469.5,1034.5 453.5,1034.5C 468.422,1033.5 484.088,1033.17 500.5,1033.5C 500.5,854.5 500.5,675.5 500.5,496.5C 484.486,496.833 468.486,496.499 452.5,495.5C 452.624,494.893 452.957,494.56 453.5,494.5 Z"/></g>
<g><path style="opacity:1" fill="#111821" d="M 840.5,496.5 C 841.833,496.5 843.167,496.5 844.5,496.5C 857.798,509.298 870.965,522.298 884,535.5C 884.667,575.833 884.667,616.167 884,656.5C 871.833,668.667 859.667,680.833 847.5,693C 797.834,693.5 748.168,693.667 698.5,693.5C 698.5,691.5 698.5,689.5 698.5,687.5C 699.167,624.665 699.833,561.665 700.5,498.5C 723.792,497.838 747.125,497.505 770.5,497.5C 793.882,497.505 817.049,498.172 840,499.5C 840.483,498.552 840.649,497.552 840.5,496.5 Z"/></g>
<g><path style="opacity:1" fill="#50366c" d="M 875.5,493.5 C 878.769,494.84 881.769,496.673 884.5,499C 886.711,502.687 889.045,506.187 891.5,509.5C 885.833,504.5 880.5,499.167 875.5,493.5 Z"/></g>
<g><path style="opacity:1" fill="#989b9f" d="M 453.5,494.5 C 453.833,494.5 454.167,494.5 454.5,494.5C 470.5,494.5 486.5,494.5 502.5,494.5C 502.5,674.833 502.5,855.167 502.5,1035.5C 486.5,1035.5 470.5,1035.5 454.5,1035.5C 454.167,1035.5 453.833,1035.5 453.5,1035.5C 453.5,1035.17 453.5,1034.83 453.5,1034.5C 469.5,1034.5 485.5,1034.5 501.5,1034.5C 501.5,854.833 501.5,675.167 501.5,495.5C 485.325,495.83 469.325,495.496 453.5,494.5 Z"/></g>
<g><path style="opacity:1" fill="#51545a" d="M 844.5,496.5 C 843.167,496.5 841.833,496.5 840.5,496.5C 793.167,496.5 745.833,496.5 698.5,496.5C 698.5,560.167 698.5,623.833 698.5,687.5C 698.5,689.5 698.5,691.5 698.5,693.5C 697.501,627.669 697.168,561.669 697.5,495.5C 746.67,495.168 795.67,495.501 844.5,496.5 Z"/></g>
<g><path style="opacity:1" fill="#040810" d="M 840.5,496.5 C 840.649,497.552 840.483,498.552 840,499.5C 817.049,498.172 793.882,497.505 770.5,497.5C 747.125,497.505 723.792,497.838 700.5,498.5C 699.833,561.665 699.167,624.665 698.5,687.5C 698.5,623.833 698.5,560.167 698.5,496.5C 745.833,496.5 793.167,496.5 840.5,496.5 Z"/></g>
<g><path style="opacity:1" fill="#0e1218" d="M 834.5,518.5 C 796.5,518.5 758.5,518.5 720.5,518.5C 720.168,569.336 720.501,620.003 721.5,670.5C 760.501,670.667 799.501,670.5 838.5,670C 839.71,668.961 840.71,667.794 841.5,666.5C 845.5,662.833 849.5,659.167 853.5,655.5C 853.938,655.435 854.272,655.601 854.5,656C 849.242,661.756 844.242,666.923 839.5,671.5C 799.266,672.829 759.1,672.829 719,671.5C 718.193,618.818 718.36,566.151 719.5,513.5C 720.978,513.238 722.311,513.571 723.5,514.5C 722.975,515.192 722.308,515.692 721.5,516C 722,516.167 722.5,516.333 723,516.5C 724.779,515.158 725.779,513.825 726,512.5C 726.5,512.667 727,512.833 727.5,513C 726.483,514.049 726.316,515.216 727,516.5C 761.762,515.338 796.595,515.171 831.5,516C 833.384,516.216 835.051,516.883 836.5,518C 835.906,518.464 835.239,518.631 834.5,518.5 Z"/></g>
<g><path style="opacity:1" fill="#070b14" d="M 479.5,519.5 C 480.833,684.001 480.833,848.667 479.5,1013.5C 478.893,1013.38 478.56,1013.04 478.5,1012.5C 479.5,848.334 479.833,684.001 479.5,519.5 Z"/></g>
<g><path style="opacity:1" fill="#fefefe" d="M 834.5,519.5 C 842.833,527.5 851.167,535.5 859.5,543.5C 860.486,578.123 860.82,612.79 860.5,647.5C 858.167,650.167 855.833,652.833 853.5,655.5C 849.5,659.167 845.5,662.833 841.5,666.5C 839.319,666.284 837.653,667.117 836.5,669C 798.168,669.5 759.835,669.667 721.5,669.5C 721.5,619.5 721.5,569.5 721.5,519.5C 759.167,519.5 796.833,519.5 834.5,519.5 Z"/></g>
<g><path style="opacity:1" fill="#4c2968" d="M 891.5,509.5 C 894.605,510.552 897.605,511.885 900.5,513.5C 902.571,514.976 903.571,516.976 903.5,519.5C 904.5,519.5 905.5,519.5 906.5,519.5C 906.608,521.783 907.441,523.783 909,525.5C 909.832,572.668 909.665,619.668 908.5,666.5C 908.832,619.664 908.499,572.997 907.5,526.5C 907.5,525.833 907.167,525.5 906.5,525.5C 901.556,520.219 896.556,514.886 891.5,509.5 Z"/></g>
<g><path style="opacity:1" fill="#684d7b" d="M 907.5,526.5 C 908.499,572.997 908.832,619.664 908.5,666.5C 908.5,666.833 908.5,667.167 908.5,667.5C 907.441,669.555 905.775,670.889 903.5,671.5C 904.031,669.456 905.198,667.789 907,666.5C 907.5,619.835 907.667,573.168 907.5,526.5 Z"/></g>
<g><path style="opacity:1" fill="#434547" d="M 430.5,517.5 C 430.833,517.5 431.167,517.5 431.5,517.5C 446.833,517.5 462.167,517.5 477.5,517.5C 478.833,517.5 479.5,518.167 479.5,519.5C 479.833,684.001 479.5,848.334 478.5,1012.5C 478.167,1012.5 477.833,1012.5 477.5,1012.5C 462.167,1012.5 446.833,1012.5 431.5,1012.5C 431.167,1012.5 430.833,1012.5 430.5,1012.5C 446.325,1011.5 462.325,1011.17 478.5,1011.5C 478.5,847.167 478.5,682.833 478.5,518.5C 462.325,518.83 446.325,518.496 430.5,517.5 Z"/></g>
<g><path style="opacity:1" fill="#9b9ca1" d="M 834.5,518.5 C 834.5,518.833 834.5,519.167 834.5,519.5C 796.833,519.5 759.167,519.5 721.5,519.5C 721.5,569.5 721.5,619.5 721.5,669.5C 721.5,669.833 721.5,670.167 721.5,670.5C 720.501,620.003 720.168,569.336 720.5,518.5C 758.5,518.5 796.5,518.5 834.5,518.5 Z"/></g>
<g><path style="opacity:1" fill="#f3e9fd" d="M 906.5,525.5 C 907.167,525.5 907.5,525.833 907.5,526.5C 907.667,573.168 907.5,619.835 907,666.5C 905.198,667.789 904.031,669.456 903.5,671.5C 901.668,672.248 900.001,673.248 898.5,674.5C 898.318,672.409 898.652,670.409 899.5,668.5C 901.747,667.755 903.58,666.422 905,664.5C 905.333,661.5 905.667,658.5 906,655.5C 906.5,612.168 906.667,568.835 906.5,525.5 Z"/></g>
<g><path style="opacity:1" fill="#96979e" d="M 859.5,543.5 C 860.117,543.611 860.617,543.944 861,544.5C 861.831,579.002 861.664,613.336 860.5,647.5C 860.82,612.79 860.486,578.123 859.5,543.5 Z"/></g>
<g><path style="opacity:1" fill="#d2d2d3" d="M 841.5,666.5 C 840.71,667.794 839.71,668.961 838.5,670C 799.501,670.5 760.501,670.667 721.5,670.5C 721.5,670.167 721.5,669.833 721.5,669.5C 759.835,669.667 798.168,669.5 836.5,669C 837.653,667.117 839.319,666.284 841.5,666.5 Z"/></g>
<g><path style="opacity:1" fill="#67477d" d="M 908.5,667.5 C 908.838,671.151 907.172,672.817 903.5,672.5C 903.703,674.39 903.037,675.89 901.5,677C 899.649,677.837 897.816,678.671 896,679.5C 895.51,680.793 895.343,682.127 895.5,683.5C 891.217,685.508 887.884,688.675 885.5,693C 882.321,693.597 879.987,695.263 878.5,698C 878.833,698.333 879.167,698.667 879.5,699C 878.062,699.219 876.729,699.719 875.5,700.5C 873.817,705.696 870.484,709.363 865.5,711.5C 864.719,712.729 864.219,714.062 864,715.5C 861.791,715.989 859.958,716.989 858.5,718.5C 797.039,717.841 735.706,717.174 674.5,716.5C 674.833,716.5 675.167,716.5 675.5,716.5C 676.5,716.5 677.5,716.5 678.5,716.5C 678.833,716.5 679.167,716.5 679.5,716.5C 738.834,716.667 798.168,716.5 857.5,716C 866.16,708.498 874.16,700.332 881.5,691.5C 887.473,686.194 893.14,680.527 898.5,674.5C 900.001,673.248 901.668,672.248 903.5,671.5C 905.775,670.889 907.441,669.555 908.5,667.5 Z"/></g>
<g><path style="opacity:1" fill="#fbf3fd" d="M 881.5,691.5 C 874.16,700.332 866.16,708.498 857.5,716C 798.168,716.5 738.834,716.667 679.5,716.5C 680.263,715.732 681.263,715.232 682.5,715C 740.335,714.833 798.001,714.333 855.5,713.5C 858.292,712.608 859.625,710.608 859.5,707.5C 861.806,707.007 864.139,706.674 866.5,706.5C 866.317,704.064 866.984,701.897 868.5,700C 872.635,697.365 876.301,694.198 879.5,690.5C 880.183,690.863 880.85,691.196 881.5,691.5 Z"/></g>
<g><path style="opacity:1" fill="#542a74" d="M 673.5,716.5 C 673.833,716.5 674.167,716.5 674.5,716.5C 735.706,717.174 797.039,717.841 858.5,718.5C 828.174,719.833 797.507,720.5 766.5,720.5C 735.833,720.167 705.167,719.833 674.5,719.5C 673.873,718.583 673.539,717.583 673.5,716.5 Z"/></g>
<g><path style="opacity:1" fill="#53316c" d="M 1018.5,744.5 C 1002.5,761.167 986.167,777.5 969.5,793.5C 969.763,787.611 972.763,784.277 978.5,783.5C 978.5,782.5 978.5,781.5 978.5,780.5C 979.5,780.5 980.5,780.5 981.5,780.5C 981.5,779.5 981.5,778.5 981.5,777.5C 982.5,777.5 983.5,777.5 984.5,777.5C 984.351,776.448 984.517,775.448 985,774.5C 989.698,769.635 994.531,764.968 999.5,760.5C 1001.08,754.918 1004.75,751.918 1010.5,751.5C 1011.5,746.808 1014.17,744.475 1018.5,744.5 Z"/></g>
<g><path style="opacity:1" fill="#f4e8f6" d="M 1036.5,727.5 C 1036.47,730.951 1034.97,733.618 1032,735.5C 1031.03,741.415 1027.53,744.749 1021.5,745.5C 1019.26,748.912 1016.26,751.412 1012.5,753C 1012.83,753.333 1013.17,753.667 1013.5,754C 1009.03,758.473 1004.53,762.973 1000,767.5C 999.023,769.74 998.523,772.073 998.5,774.5C 996.54,775.138 994.707,775.138 993,774.5C 980.043,787.491 966.376,801.158 952,815.5C 950.991,817.025 950.491,818.692 950.5,820.5C 949.167,821.5 947.833,822.5 946.5,823.5C 945.833,823.167 945.167,822.833 944.5,822.5C 943.5,822.5 942.5,822.5 941.5,822.5C 950.5,813.167 959.5,803.833 968.5,794.5C 969.167,794.5 969.5,794.167 969.5,793.5C 986.167,777.5 1002.5,761.167 1018.5,744.5C 1020.5,743.167 1022.17,741.5 1023.5,739.5C 1027.83,735.5 1032.17,731.5 1036.5,727.5 Z"/></g>
<g><path style="opacity:1" fill="#532e6e" d="M 968.5,794.5 C 959.5,803.833 950.5,813.167 941.5,822.5C 853.167,822.5 764.833,822.5 676.5,822.5C 676.5,901.167 676.5,979.833 676.5,1058.5C 674.91,1058.37 673.577,1057.71 672.5,1056.5C 673.168,981.012 673.835,905.512 674.5,830C 672.19,827.182 672.19,824.516 674.5,822C 763.085,820.672 851.752,820.005 940.5,820C 941.939,819.009 942.939,817.676 943.5,816C 944.448,815.517 945.448,815.351 946.5,815.5C 946.34,813.801 946.506,812.134 947,810.5C 950.926,808.626 953.426,805.626 954.5,801.5C 957.343,801.058 960.009,800.058 962.5,798.5C 963.159,795.176 965.159,793.843 968.5,794.5 Z"/></g>
<g><path style="opacity:1" fill="#fef5fe" d="M 941.5,822.5 C 942.5,822.5 943.5,822.5 944.5,822.5C 944.389,823.117 944.056,823.617 943.5,824C 858.167,824.333 772.833,824.667 687.5,825C 684.574,825.218 681.74,825.718 679,826.5C 678.333,902.5 678.333,978.5 679,1054.5C 679.75,1055.13 680.584,1055.63 681.5,1056C 694.546,1056.81 707.546,1056.65 720.5,1055.5C 721.298,1055.96 721.631,1056.62 721.5,1057.5C 706.833,1057.5 692.167,1057.5 677.5,1057.5C 677.5,979.5 677.5,901.5 677.5,823.5C 765.668,823.833 853.668,823.499 941.5,822.5 Z"/></g>
<g><path style="opacity:1" fill="#f9fef7" d="M 946.5,823.5 C 947.833,822.5 949.167,821.5 950.5,820.5C 951.601,819.152 952.601,817.652 953.5,816C 954.483,815.409 955.15,815.743 955.5,817C 953.543,825.352 948.209,829.185 939.5,828.5C 855.53,828.8 771.53,828.466 687.5,827.5C 772.831,826.667 858.165,826.167 943.5,826C 944.571,825.148 945.571,824.315 946.5,823.5 Z"/></g>
<g><path style="opacity:1" fill="#dfccee" d="M 941.5,822.5 C 853.668,823.499 765.668,823.833 677.5,823.5C 677.5,901.5 677.5,979.5 677.5,1057.5C 692.167,1057.5 706.833,1057.5 721.5,1057.5C 722.492,1057.33 723.158,1057.66 723.5,1058.5C 708.167,1058.5 692.833,1058.5 677.5,1058.5C 677.167,1058.5 676.833,1058.5 676.5,1058.5C 676.5,979.833 676.5,901.167 676.5,822.5C 764.833,822.5 853.167,822.5 941.5,822.5 Z"/></g>
<g><path style="opacity:1" fill="#04070c" d="M 951.5,845.5 C 953.379,845.393 953.712,845.893 952.5,847C 868.834,847.5 785.167,847.667 701.5,847.5C 701.5,909.5 701.5,971.5 701.5,1033.5C 716.343,1033.17 731.01,1033.5 745.5,1034.5C 730.5,1034.5 715.5,1034.5 700.5,1034.5C 700.5,971.833 700.5,909.167 700.5,846.5C 784.335,846.833 868.002,846.499 951.5,845.5 Z"/></g>
<g><path style="opacity:1" fill="#6a6d71" d="M 951.5,845.5 C 868.002,846.499 784.335,846.833 700.5,846.5C 700.5,909.167 700.5,971.833 700.5,1034.5C 715.5,1034.5 730.5,1034.5 745.5,1034.5C 746.167,1034.5 746.5,1034.83 746.5,1035.5C 730.833,1035.5 715.167,1035.5 699.5,1035.5C 699.5,972.167 699.5,908.833 699.5,845.5C 783.5,845.5 867.5,845.5 951.5,845.5 Z"/></g>
<g><path style="opacity:1" fill="#7e8388" d="M 723.5,869.5 C 723.5,916.833 723.5,964.167 723.5,1011.5C 739.167,1011.5 754.833,1011.5 770.5,1011.5C 770.833,1080.67 770.499,1149.67 769.5,1218.5C 769.5,1218.17 769.5,1217.83 769.5,1217.5C 769.5,1149.17 769.5,1080.83 769.5,1012.5C 753.833,1012.5 738.167,1012.5 722.5,1012.5C 722.5,965.167 722.5,917.833 722.5,870.5C 722.5,869.833 722.833,869.5 723.5,869.5 Z"/></g>
<g><path style="opacity:1" fill="#040b13" d="M 722.5,870.5 C 722.5,917.833 722.5,965.167 722.5,1012.5C 738.167,1012.5 753.833,1012.5 769.5,1012.5C 769.5,1080.83 769.5,1149.17 769.5,1217.5C 656.833,1217.5 544.167,1217.5 431.5,1217.5C 431.5,1149.17 431.5,1080.83 431.5,1012.5C 446.833,1012.5 462.167,1012.5 477.5,1012.5C 477.631,1013.38 477.298,1014.04 476.5,1014.5C 461.882,1013.52 447.215,1013.18 432.5,1013.5C 432.5,1081.17 432.5,1148.83 432.5,1216.5C 544.5,1216.5 656.5,1216.5 768.5,1216.5C 768.5,1148.83 768.5,1081.17 768.5,1013.5C 753.785,1013.18 739.118,1013.52 724.5,1014.5C 722.503,1014.01 721.169,1012.85 720.5,1011C 721.159,964.027 721.826,917.194 722.5,870.5 Z"/></g>
<g><path style="opacity:1" fill="#bdc1c5" d="M 453.5,1035.5 C 453.833,1035.5 454.167,1035.5 454.5,1035.5C 454.5,1088.5 454.5,1141.5 454.5,1194.5C 551.833,1194.5 649.167,1194.5 746.5,1194.5C 649.001,1195.5 551.335,1195.83 453.5,1195.5C 453.5,1142.17 453.5,1088.83 453.5,1035.5 Z"/></g>
<g><path style="opacity:1" fill="#fef2fe" d="M 477.5,1172.5 C 559.5,1172.5 641.5,1172.5 723.5,1172.5C 723.38,1173.59 722.713,1174.25 721.5,1174.5C 640.66,1173.17 559.827,1173.17 479,1174.5C 477.97,1174.16 477.47,1173.5 477.5,1172.5 Z"/></g>
<g><path style="opacity:1" fill="#bda7c8" d="M 723.5,1058.5 C 724.833,1096.5 724.833,1134.5 723.5,1172.5C 641.5,1172.5 559.5,1172.5 477.5,1172.5C 477.5,1172.17 477.5,1171.83 477.5,1171.5C 559.167,1171.5 640.833,1171.5 722.5,1171.5C 723.498,1134 723.832,1096.34 723.5,1058.5 Z"/></g>
<g><path style="opacity:1" fill="#432357" d="M 477.5,1063.5 C 478.167,1098.17 478.833,1132.83 479.5,1167.5C 479.328,1168.49 479.662,1169.16 480.5,1169.5C 560.332,1170.67 640.332,1170.83 720.5,1170C 721.252,1169.33 721.586,1168.5 721.5,1167.5C 721.833,1167.5 722.167,1167.5 722.5,1167.5C 722.5,1168.83 722.5,1170.17 722.5,1171.5C 640.833,1171.5 559.167,1171.5 477.5,1171.5C 477.5,1135.5 477.5,1099.5 477.5,1063.5 Z"/></g>
<g><path style="opacity:1" fill="#573075" d="M 721.5,1167.5 C 721.586,1168.5 721.252,1169.33 720.5,1170C 640.332,1170.83 560.332,1170.67 480.5,1169.5C 560.167,1169.67 639.834,1169.5 719.5,1169C 720.044,1168.28 720.711,1167.78 721.5,1167.5 Z"/></g>
<g><path style="opacity:1" fill="#553a69" d="M 677.5,1058.5 C 692.833,1058.5 708.167,1058.5 723.5,1058.5C 723.832,1096.34 723.498,1134 722.5,1171.5C 722.5,1170.17 722.5,1168.83 722.5,1167.5C 722.667,1131.83 722.5,1096.17 722,1060.5C 707.069,1059.84 692.235,1059.17 677.5,1058.5 Z"/></g>
<g><path style="opacity:1" fill="#4f2a6a" d="M 676.5,1058.5 C 676.833,1058.5 677.167,1058.5 677.5,1058.5C 692.235,1059.17 707.069,1059.84 722,1060.5C 722.5,1096.17 722.667,1131.83 722.5,1167.5C 722.167,1167.5 721.833,1167.5 721.5,1167.5C 721.667,1132.83 721.5,1098.17 721,1063.5C 720.308,1062.97 719.808,1062.31 719.5,1061.5C 704.81,1061.16 690.477,1060.16 676.5,1058.5 Z"/></g>
<g><path style="opacity:1" fill="#56306d" d="M 477.5,1058.5 C 493.5,1058.5 509.5,1058.5 525.5,1058.5C 525.389,1059.12 525.056,1059.62 524.5,1060C 509.504,1060.5 494.504,1060.67 479.5,1060.5C 479.5,1096.17 479.5,1131.83 479.5,1167.5C 478.833,1132.83 478.167,1098.17 477.5,1063.5C 477.5,1061.83 477.5,1060.17 477.5,1058.5 Z"/></g>
<g><path style="opacity:1" fill="#32373c" d="M 430.5,1012.5 C 430.833,1012.5 431.167,1012.5 431.5,1012.5C 431.5,1080.83 431.5,1149.17 431.5,1217.5C 544.167,1217.5 656.833,1217.5 769.5,1217.5C 769.5,1217.83 769.5,1218.17 769.5,1218.5C 656.5,1218.5 543.5,1218.5 430.5,1218.5C 430.5,1149.83 430.5,1081.17 430.5,1012.5 Z"/></g>
</svg>
